<?xml version="1.0" standalone="no"?>
<!DOCTYPE svg PUBLIC "-//W3C//DTD SVG 20010904//EN"
 "http://www.w3.org/TR/2001/REC-SVG-20010904/DTD/svg10.dtd">
<svg version="1.0" xmlns="http://www.w3.org/2000/svg"
 width="263.000000pt" height="350.000000pt" viewBox="0 0 263.000000 350.000000"
 preserveAspectRatio="xMidYMid meet">
<metadata>
Created by potrace 1.16, written by Peter Selinger 2001-2019
</metadata>
<g transform="translate(0.000000,350.000000) scale(0.100000,-0.100000)"
fill="#000000" stroke="none">
<path d="M2263 3226 c-169 -174 -389 -244 -968 -306 -382 -42 -607 -132 -868
-348 -187 -155 -319 -364 -364 -577 -21 -101 -14 -275 14 -336 39 -87 134
-168 197 -169 10 0 47 24 81 53 34 28 99 81 143 117 45 36 80 72 79 80 -1 8
-19 18 -42 22 -100 20 -190 98 -221 190 -23 70 -15 204 16 273 88 193 270 285
562 285 93 0 109 -2 104 -15 -11 -29 -114 -411 -131 -485 -9 -41 -23 -102 -30
-135 -53 -226 -68 -440 -41 -575 10 -46 28 -104 41 -129 34 -68 108 -139 180
-172 77 -36 196 -62 251 -55 65 8 144 42 201 85 l51 39 24 -25 c64 -69 176
-107 295 -101 216 11 393 184 523 514 49 121 70 230 70 354 0 92 3 110 15 110
24 0 87 44 123 84 54 62 66 162 27 222 -35 53 -122 66 -181 27 -32 -20 -30
-35 6 -61 32 -24 38 -43 18 -60 -22 -17 -54 4 -102 67 -57 74 -88 91 -160 91
-107 0 -218 -94 -202 -171 3 -16 26 -53 50 -84 188 -230 90 -731 -166 -850
-62 -29 -97 -31 -144 -9 -45 22 -47 26 -21 55 131 142 216 351 204 500 -13
150 -84 225 -224 237 -155 12 -281 -86 -334 -257 -19 -65 -21 -88 -16 -185 7
-122 20 -176 68 -269 l31 -61 -27 -23 c-35 -31 -69 -38 -113 -25 -53 16 -106
64 -132 119 -20 42 -23 63 -22 163 1 169 31 298 129 540 30 74 65 160 79 189
14 30 46 102 70 159 24 57 51 116 59 131 l14 28 158 6 c293 12 446 76 564 237
82 111 129 276 129 451 0 115 -5 119 -67 55z m-612 -1557 c16 -31 5 -85 -38
-178 -25 -58 -39 -79 -47 -71 -6 6 -12 57 -14 113 -4 93 -2 104 18 130 26 33
65 36 81 6z"/>
<path d="M877 763 c-4 -3 -7 -26 -7 -50 0 -41 1 -43 30 -43 l30 0 0 -121 0
-120 48 3 47 3 3 118 3 117 29 0 c29 0 30 1 30 50 l0 50 -103 0 c-57 0 -107
-3 -110 -7z"/>
<path d="M1130 748 c1 -13 18 -88 38 -168 l37 -145 47 -3 47 -3 13 61 c13 66
23 63 36 -13 l8 -42 48 0 49 0 39 154 c21 84 37 160 34 168 -4 10 -19 13 -53
11 l-48 -3 -9 -52 c-10 -62 -21 -68 -30 -15 -13 70 -15 72 -56 72 -37 0 -40
-2 -49 -37 -6 -21 -11 -46 -11 -55 0 -9 -4 -20 -10 -23 -6 -3 -10 4 -10 17 0
13 -5 40 -11 61 -10 36 -11 37 -59 37 -45 0 -50 -2 -50 -22z"/>
<path d="M1577 763 c-4 -3 -7 -80 -7 -170 l0 -163 50 0 50 0 0 170 0 170 -43
0 c-24 0 -47 -3 -50 -7z"/>
<path d="M1805 753 c-56 -30 -95 -97 -95 -164 0 -44 40 -108 84 -134 95 -55
222 -6 242 95 l7 30 -50 0 c-40 0 -54 -5 -73 -25 -29 -31 -49 -32 -79 -4 -19
18 -22 29 -18 56 6 35 30 62 55 63 8 0 27 -13 42 -30 23 -25 36 -30 74 -30 43
0 46 2 46 27 0 14 -12 41 -26 60 -50 66 -144 91 -209 56z"/>
<path d="M2082 603 l3 -168 95 0 95 0 0 45 0 45 -42 3 c-57 4 -55 22 2 22 l45
0 0 50 0 50 -45 0 c-25 0 -45 5 -45 10 0 6 20 10 46 10 l45 0 -3 48 -3 47 -98
3 -97 3 2 -168z"/>
</g>
</svg>
